<?xml version="1.0" encoding="utf-8"?>
<!-- Generator: Adobe Illustrator 22.1.0, SVG Export Plug-In . SVG Version: 6.00 Build 0)  -->
<svg version="1.1" id="Layer_1" xmlns="http://www.w3.org/2000/svg" xmlns:xlink="http://www.w3.org/1999/xlink" x="0px" y="0px"
	 viewBox="0 0 100 100" style="enable-background:new 0 0 100 100;" xml:space="preserve">
<style type="text/css">
	.st0{fill:#FFFFFF;}
</style>
<g>
	<path class="st0" d="M1.2,58V47H15v-0.7H1.2v-10h14.7v-0.7H0.5v23h15.4v-0.7L1.2,58L1.2,58z M28.3,42.1l-5.7,7.5L17,42.1h-0.8l6,8
		l-6.6,8.6h0.7l6.2-8.1l6.2,8.1h0.8L23,50.1l6-8H28.3L28.3,42.1z M31.6,64.4V54.1h0.1c0.4,1.5,1.2,2.7,2.3,3.7
		c1.1,0.9,2.6,1.4,4.4,1.4c1.1,0,2.2-0.2,3.1-0.7c0.9-0.5,1.6-1.1,2.2-1.9c0.6-0.8,1.1-1.7,1.4-2.8c0.3-1.1,0.5-2.2,0.5-3.4
		c0-1.3-0.2-2.4-0.5-3.5s-0.8-2-1.4-2.8c-0.6-0.8-1.4-1.4-2.2-1.8c-0.9-0.4-1.9-0.7-3-0.7c-0.8,0-1.6,0.1-2.4,0.4
		c-0.7,0.2-1.4,0.6-1.9,1.1c-0.6,0.5-1.1,1-1.5,1.6s-0.7,1.3-0.9,2h-0.1v-4.7H31v22.3H31.6L31.6,64.4z M38.3,58.4
		c-2,0-3.7-0.7-4.9-2.1c-1.2-1.4-1.9-3.4-1.9-5.9c0-1.1,0.2-2.1,0.5-3.1c0.3-1,0.7-1.8,1.3-2.6c0.6-0.7,1.3-1.3,2.1-1.8
		c0.8-0.4,1.8-0.7,2.9-0.7c1.1,0,2,0.2,2.8,0.7c0.8,0.4,1.5,1,2,1.8c0.5,0.7,0.9,1.6,1.2,2.6c0.3,1,0.4,2,0.4,3.1
		c0,1-0.1,1.9-0.4,2.9c-0.2,1-0.6,1.8-1.2,2.6c-0.5,0.8-1.2,1.4-2,1.9C40.4,58.1,39.4,58.4,38.3,58.4L38.3,58.4z M48.9,58.7v-9.4
		c0-0.9,0.1-1.8,0.4-2.7c0.3-0.9,0.7-1.6,1.2-2.3c0.5-0.7,1.2-1.2,2.1-1.6c0.8-0.4,1.8-0.5,3-0.5v-0.7c-1,0-1.9,0.1-2.6,0.3
		c-0.7,0.2-1.4,0.6-1.9,1c-0.5,0.4-1,0.9-1.3,1.4c-0.3,0.6-0.6,1.2-0.7,1.8H49v-4h-0.7v16.5L48.9,58.7L48.9,58.7z M56.2,50.5h13.9
		c0-1.1-0.1-2.3-0.3-3.3c-0.3-1.1-0.7-2-1.3-2.8c-0.6-0.8-1.4-1.5-2.3-2c-0.9-0.5-2.1-0.7-3.4-0.7c-0.9,0-1.8,0.2-2.7,0.6
		c-0.9,0.4-1.7,1-2.3,1.7s-1.2,1.7-1.6,2.8c-0.4,1.1-0.6,2.3-0.6,3.7c0,1.2,0.1,2.4,0.4,3.5c0.3,1.1,0.7,2,1.3,2.8
		c0.6,0.8,1.3,1.4,2.3,1.8c0.9,0.4,2,0.6,3.3,0.6c1.9,0,3.5-0.5,4.8-1.6s2.1-2.6,2.3-4.5h-0.7c-0.3,1.8-1,3.2-2.2,4.1
		s-2.6,1.4-4.4,1.4c-1.2,0-2.2-0.2-3-0.6c-0.8-0.4-1.5-1-2-1.7c-0.5-0.7-0.9-1.6-1.2-2.5C56.4,52.7,56.3,51.6,56.2,50.5L56.2,50.5z
		 M69.5,49.9H56.2c0.1-1.2,0.3-2.2,0.7-3.2c0.4-0.9,0.9-1.7,1.4-2.4c0.6-0.7,1.3-1.2,2.1-1.5c0.8-0.3,1.6-0.5,2.6-0.5
		c1.1,0,2,0.2,2.9,0.6c0.8,0.4,1.5,0.9,2.1,1.6c0.6,0.7,1,1.5,1.3,2.4C69.3,47.9,69.5,48.9,69.5,49.9L69.5,49.9z M83.5,47h0.7
		c0-1.9-0.5-3.2-1.6-4.1c-1.1-0.8-2.6-1.3-4.4-1.3c-1,0-1.9,0.1-2.6,0.4c-0.7,0.3-1.3,0.6-1.8,1c-0.5,0.4-0.8,0.9-1,1.4
		c-0.2,0.5-0.3,1-0.3,1.4c0,0.9,0.2,1.6,0.5,2.2c0.3,0.5,0.8,1,1.5,1.3c0.5,0.2,1,0.4,1.6,0.6c0.6,0.2,1.3,0.4,2.1,0.6
		c0.7,0.2,1.4,0.3,2.1,0.5c0.7,0.2,1.3,0.4,1.8,0.7c0.5,0.3,1,0.7,1.3,1.1c0.3,0.5,0.5,1.1,0.5,1.8s-0.2,1.3-0.5,1.8
		s-0.8,0.9-1.3,1.2c-0.5,0.3-1.1,0.5-1.7,0.7c-0.6,0.1-1.3,0.2-1.9,0.2c-2,0-3.5-0.4-4.5-1.3c-1.1-0.9-1.6-2.3-1.6-4.1h-0.7
		c0,2.1,0.6,3.6,1.7,4.6c1.1,1,2.8,1.5,5,1.5c0.7,0,1.4-0.1,2.2-0.2c0.7-0.2,1.4-0.4,2-0.8c0.6-0.4,1-0.9,1.4-1.4
		c0.4-0.6,0.5-1.3,0.5-2.1c0-0.8-0.2-1.5-0.5-2c-0.3-0.5-0.7-0.9-1.2-1.2c-0.5-0.3-1.1-0.6-1.7-0.8s-1.3-0.4-1.9-0.5
		c-0.8-0.2-1.6-0.4-2.4-0.6c-0.7-0.2-1.3-0.4-1.9-0.6s-1-0.6-1.4-1c-0.3-0.4-0.5-1.1-0.5-1.9c0-0.2,0-0.4,0.1-0.8
		c0.1-0.4,0.3-0.8,0.6-1.2c0.3-0.4,0.8-0.8,1.5-1.1c0.7-0.3,1.6-0.5,2.8-0.5c0.8,0,1.5,0.1,2.2,0.3c0.7,0.2,1.2,0.5,1.7,0.8
		c0.5,0.4,0.8,0.9,1.1,1.4C83.4,45.4,83.5,46.1,83.5,47L83.5,47z M98.4,47h0.7c0-1.9-0.5-3.2-1.6-4.1c-1.1-0.8-2.6-1.3-4.4-1.3
		c-1,0-1.9,0.1-2.6,0.4c-0.7,0.3-1.3,0.6-1.8,1c-0.5,0.4-0.8,0.9-1,1.4c-0.2,0.5-0.3,1-0.3,1.4c0,0.9,0.2,1.6,0.5,2.2
		c0.3,0.5,0.8,1,1.5,1.3c0.5,0.2,1,0.4,1.6,0.6c0.6,0.2,1.3,0.4,2.1,0.6c0.7,0.2,1.4,0.3,2.1,0.5c0.7,0.2,1.3,0.4,1.8,0.7
		c0.5,0.3,1,0.7,1.3,1.1c0.3,0.5,0.5,1.1,0.5,1.8s-0.2,1.3-0.5,1.8s-0.8,0.9-1.3,1.2c-0.5,0.3-1.1,0.5-1.7,0.7
		c-0.6,0.1-1.3,0.2-1.9,0.2c-2,0-3.5-0.4-4.5-1.3c-1.1-0.9-1.6-2.3-1.6-4.1h-0.7c0,2.1,0.6,3.6,1.7,4.6c1.1,1,2.8,1.5,5,1.5
		c0.7,0,1.4-0.1,2.2-0.2c0.7-0.2,1.4-0.4,2-0.8c0.6-0.4,1-0.9,1.4-1.4c0.4-0.6,0.5-1.3,0.5-2.1c0-0.8-0.2-1.5-0.5-2
		c-0.3-0.5-0.7-0.9-1.2-1.2c-0.5-0.3-1.1-0.6-1.7-0.8c-0.6-0.2-1.3-0.4-1.9-0.5c-0.8-0.2-1.6-0.4-2.4-0.6c-0.7-0.2-1.3-0.4-1.9-0.6
		c-0.6-0.2-1-0.6-1.4-1c-0.3-0.4-0.5-1.1-0.5-1.9c0-0.2,0-0.4,0.1-0.8c0.1-0.4,0.3-0.8,0.6-1.2c0.3-0.4,0.8-0.8,1.5-1.1
		c0.7-0.3,1.6-0.5,2.8-0.5c0.8,0,1.5,0.1,2.2,0.3c0.7,0.2,1.2,0.5,1.7,0.8c0.5,0.4,0.8,0.9,1.1,1.4C98.3,45.4,98.4,46.1,98.4,47
		L98.4,47z"/>
	<path class="st0" d="M31.6,64.9H31c-0.3,0-0.5-0.2-0.5-0.5V42.1c0-0.3,0.2-0.5,0.5-0.5h0.7c0.3,0,0.5,0.2,0.5,0.5v2.5
		c0,0,0.1-0.1,0.1-0.1c0.4-0.6,0.9-1.1,1.6-1.7c0.5-0.5,1.3-1,2.1-1.2c1.5-0.6,3.5-0.6,5.7,0.3c0.7,0.3,1.6,0.9,2.4,1.9
		c0.7,0.9,1.2,1.9,1.5,2.9c0.4,1.3,0.5,2.4,0.5,3.6c0,1.1-0.2,2.2-0.5,3.5c-0.3,1-0.8,2-1.5,2.9c-0.6,0.8-1.4,1.5-2.3,2
		c-0.9,0.5-2,0.8-3.3,0.8c-1.9,0-3.5-0.5-4.7-1.5c-0.6-0.6-1.2-1.2-1.6-1.9v8.1C32.1,64.6,31.9,64.9,31.6,64.9z M38.3,42.8
		c-1.1,0-2.1,0.3-2.7,0.6c-0.7,0.4-1.4,1-1.9,1.7c-0.5,0.7-0.9,1.5-1.2,2.4c-0.3,1.1-0.5,2-0.5,2.9c0,2.4,0.6,4.3,1.8,5.6
		c1.1,1.2,2.6,1.9,4.5,1.9c0.9,0,1.8-0.2,2.5-0.6c0.8-0.5,1.4-1.1,1.8-1.7c0.6-0.8,1-1.6,1.1-2.4c0.3-0.9,0.4-1.7,0.4-2.8
		c0-1.2-0.1-2.1-0.4-2.9c-0.3-1-0.7-1.8-1.1-2.4c-0.4-0.7-1.1-1.3-1.8-1.6C40.1,43,39.4,42.8,38.3,42.8z M31.5,53.6L31.5,53.6
		C31.5,53.6,31.5,53.6,31.5,53.6C31.5,53.6,31.5,53.6,31.5,53.6z M31.5,47.2v0.4c0-0.1,0.1-0.3,0.1-0.4
		C31.6,47.2,31.5,47.2,31.5,47.2z M93.5,59.6c-2.4,0-4.2-0.5-5.4-1.6c-1.2-1.1-1.8-2.8-1.8-4.9c0-0.3,0.2-0.5,0.5-0.5h0.7
		c0.3,0,0.5,0.2,0.5,0.5c0,1.7,0.5,2.9,1.4,3.7c0.9,0.8,2.2,1.2,4.1,1.2c0.6,0,1.3-0.1,1.8-0.2c0.5-0.2,1.1-0.4,1.5-0.6
		c0.5-0.3,0.9-0.7,1.1-1c0.3-0.5,0.4-1,0.4-1.5c0-0.5-0.1-1.1-0.4-1.5c-0.2-0.3-0.6-0.6-1.1-0.9c-0.4-0.3-1-0.4-1.7-0.6
		c-0.3-0.1-0.7-0.2-1-0.2c-0.4-0.1-0.7-0.2-1.1-0.3c-0.8-0.2-1.5-0.4-2.1-0.6c-0.6-0.2-1.1-0.4-1.6-0.6c-0.7-0.3-1.3-0.8-1.7-1.5
		c-0.4-0.8-0.6-1.6-0.6-2.4c0-0.5,0.1-1,0.3-1.6c0.3-0.7,0.6-1.2,1.1-1.6c0.6-0.5,1.3-0.8,1.9-1.1c0.7-0.3,1.6-0.4,2.8-0.4
		c1.8,0,3.4,0.5,4.6,1.4c1.2,1,1.8,2.4,1.8,4.5c0,0.3-0.2,0.5-0.5,0.5h-0.7c-0.1,0-0.3-0.1-0.4-0.1c-0.1-0.1-0.1-0.2-0.1-0.4
		c0-0.9-0.1-1.4-0.3-1.7c-0.3-0.5-0.6-1-1-1.3c-0.4-0.3-0.9-0.5-1.5-0.7c-0.7-0.2-1.3-0.3-2-0.3c-1,0-1.9,0.1-2.6,0.5
		c-0.6,0.2-1,0.6-1.3,0.9c-0.3,0.3-0.4,0.7-0.5,1c-0.1,0.3-0.1,0.5-0.1,0.7c0,0.8,0.2,1.3,0.4,1.6c0.3,0.3,0.7,0.7,1.1,0.8
		c0.6,0.2,1.2,0.4,1.9,0.6l2.4,0.6c0.6,0.1,1.4,0.3,1.9,0.5c0.7,0.2,1.4,0.6,1.8,0.8c0.6,0.3,1,0.8,1.4,1.4c0.4,0.6,0.6,1.4,0.6,2.2
		c0,0.7-0.1,1.6-0.6,2.4c-0.4,0.6-0.9,1.1-1.5,1.5c-0.7,0.4-1.4,0.7-2.1,0.9l-0.4,0.1C94.7,59.5,94.1,59.6,93.5,59.6z M98.9,47
		L98.9,47L98.9,47z M78.5,59.6c-2.4,0-4.2-0.5-5.4-1.6c-1.2-1.1-1.8-2.8-1.8-4.9c0-0.3,0.2-0.5,0.5-0.5h0.7c0.3,0,0.5,0.2,0.5,0.5
		c0,1.7,0.5,2.9,1.4,3.7c0.9,0.8,2.2,1.2,4.1,1.2c0.6,0,1.3-0.1,1.8-0.2c0.5-0.2,1.1-0.4,1.5-0.6c0.5-0.3,0.9-0.7,1.1-1
		c0.3-0.5,0.4-1,0.4-1.5c0-0.5-0.1-1.1-0.4-1.5c-0.2-0.3-0.6-0.6-1.1-0.9c-0.4-0.3-1-0.4-1.7-0.6c-0.3-0.1-0.7-0.2-1-0.2
		c-0.4-0.1-0.7-0.2-1.1-0.3c-0.8-0.2-1.5-0.4-2.1-0.6s-1.1-0.4-1.6-0.6c-0.7-0.3-1.3-0.8-1.7-1.5c-0.4-0.8-0.6-1.6-0.6-2.4
		c0-0.5,0.1-1,0.3-1.6c0.3-0.7,0.6-1.2,1.1-1.6c0.6-0.5,1.3-0.8,1.9-1.1c0.7-0.3,1.6-0.4,2.8-0.4c1.8,0,3.4,0.5,4.6,1.4
		c1.2,1,1.8,2.4,1.8,4.5c0,0.3-0.2,0.5-0.5,0.5h-0.7c-0.3,0-0.5-0.2-0.5-0.5c0-0.9-0.1-1.4-0.3-1.7c-0.3-0.5-0.6-1-1-1.3
		c-0.4-0.3-0.9-0.5-1.5-0.7c-0.7-0.2-1.3-0.3-2-0.3c-1,0-1.9,0.1-2.6,0.5c-0.6,0.2-1,0.6-1.3,0.9c-0.3,0.3-0.4,0.7-0.5,1
		c-0.1,0.3-0.1,0.5-0.1,0.7c0,0.8,0.2,1.3,0.4,1.6c0.3,0.3,0.7,0.7,1.1,0.8c0.6,0.2,1.2,0.4,1.9,0.6l2.4,0.6
		c0.6,0.1,1.4,0.3,1.9,0.5c0.7,0.2,1.4,0.6,1.8,0.8c0.6,0.3,1,0.8,1.4,1.4c0.4,0.6,0.6,1.4,0.6,2.2c0,0.7-0.1,1.6-0.6,2.4
		c-0.4,0.6-0.9,1.1-1.5,1.5c-0.7,0.4-1.4,0.7-2.1,0.9l-0.4,0.1C79.8,59.5,79.2,59.6,78.5,59.6z M84,47L84,47L84,47z M63,59.6
		c-1.4,0-2.5-0.2-3.5-0.6c-1-0.4-1.8-1-2.5-1.9c-0.6-0.8-1-1.7-1.4-2.9c-0.3-1-0.4-2.2-0.4-3.6c0-1.4,0.2-2.7,0.6-3.8
		c0.4-1.1,1-2.1,1.7-2.9c0.7-0.8,1.5-1.4,2.5-1.8c1-0.4,1.9-0.6,2.9-0.6c1.5,0,2.7,0.3,3.6,0.8c0.9,0.5,1.8,1.3,2.4,2.1
		c0.6,0.8,1,1.7,1.4,2.9c0.2,1,0.3,2.2,0.3,3.4c0,0.3-0.2,0.5-0.5,0.5H56.8c0.1,0.9,0.2,1.8,0.3,2.7c0.3,0.9,0.7,1.7,1.1,2.3
		c0.5,0.6,1.1,1.2,1.8,1.5c0.7,0.4,1.6,0.5,2.7,0.5c1.6,0,2.9-0.4,4.1-1.3c1-0.8,1.7-2,2-3.7c0-0.2,0.2-0.4,0.5-0.4H70
		c0.1,0,0.3,0.1,0.4,0.2c0.1,0.1,0.1,0.2,0.1,0.4c-0.2,2-1,3.6-2.4,4.8C66.7,59,65,59.6,63,59.6z M56.8,49.4H69
		c0-0.5-0.1-0.9-0.2-1.4c0-0.3-0.1-0.6-0.1-1c-0.3-0.9-0.7-1.6-1.2-2.2c-0.5-0.6-1.1-1.1-1.9-1.5C64.8,43,64,42.9,63,42.9
		c-0.8,0-1.5,0.1-2.4,0.5c-0.7,0.3-1.3,0.7-1.9,1.3c-0.5,0.8-1,1.5-1.3,2.3C57.1,47.7,56.9,48.5,56.8,49.4z M48.9,59.2
		C48.9,59.2,48.9,59.2,48.9,59.2l-0.7-0.1c-0.2,0-0.4-0.2-0.4-0.5V42.1c0-0.3,0.2-0.5,0.5-0.5H49c0.3,0,0.5,0.2,0.5,0.5v1.7
		c0.4-0.6,1-1.1,1.3-1.3c0.6-0.5,1.4-0.9,2.1-1.1c0.7-0.2,1.7-0.3,2.7-0.3c0.3,0,0.5,0.2,0.5,0.5v0.7c0,0.3-0.2,0.5-0.5,0.5
		c-1.3,0-2.1,0.1-2.7,0.4c-0.9,0.4-1.5,0.8-1.9,1.4c-0.5,0.7-0.9,1.4-1.1,2.1c-0.3,0.8-0.4,1.6-0.4,2.5v9.4c0,0.1-0.1,0.3-0.2,0.4
		C49.1,59.2,49,59.2,48.9,59.2z M48.8,46.5L48.8,46.5C48.8,46.5,48.8,46.5,48.8,46.5C48.8,46.5,48.8,46.5,48.8,46.5z M29.6,59.2
		h-0.8c-0.2,0-0.3-0.1-0.4-0.2l-5.8-7.6L16.7,59c-0.1,0.1-0.2,0.2-0.4,0.2h-0.7c-0.1,0-0.2,0-0.3-0.1H0.5c-0.3,0-0.5-0.2-0.5-0.5
		v-23c0-0.3,0.2-0.5,0.5-0.5h15.3c0.3,0,0.5,0.2,0.5,0.5v0.7c0,0.3-0.2,0.5-0.5,0.5H1.7v9H15c0.3,0,0.5,0.2,0.5,0.5V47
		c0,0.3-0.2,0.5-0.5,0.5H1.7v9.9h14.3c0,0,0,0,0.1,0l5.6-7.3l-5.8-7.7c-0.1-0.1-0.1-0.4,0-0.5c0.1-0.2,0.3-0.3,0.4-0.3H17
		c0.2,0,0.3,0.1,0.4,0.2l5.2,7l5.3-7c0.1-0.1,0.2-0.2,0.4-0.2H29c0.2,0,0.4,0.1,0.4,0.3c0.1,0.2,0.1,0.4,0,0.5l-5.8,7.7l6.4,8.3
		c0.1,0.1,0.1,0.4,0.1,0.5C30,59.1,29.8,59.2,29.6,59.2z"/>
</g>
</svg>
