<?xml version="1.0" encoding="utf-8"?>
<!-- Generator: Adobe Illustrator 22.1.0, SVG Export Plug-In . SVG Version: 6.00 Build 0)  -->
<svg version="1.1" id="Layer_1" xmlns="http://www.w3.org/2000/svg" xmlns:xlink="http://www.w3.org/1999/xlink" x="0px" y="0px"
	 viewBox="0 0 100 100" style="enable-background:new 0 0 100 100;" xml:space="preserve">
<style type="text/css">
	.st0{fill:#FFFFFF;}
</style>
<g>
	<path class="st0" d="M25.5,79.4h48.9c4.2,0,7.6-3.4,7.6-7.6V7.6C82,3.4,78.6,0,74.4,0H25.5C21.3,0,18,3.4,18,7.6v64.3
		C18,76,21.3,79.4,25.5,79.4z M32.9,68.4v-18l9,9L32.9,68.4z M60.2,10.9H70c0,0-1.7,4.7-6.8,11.3h0h-9.5
		C57.1,18,60.2,10.9,60.2,10.9z M41.7,10.8v18.8c0,0,25-9.8,25,7.5v31.4h-8.6h0V37c0,0,2.1-7.5-25.3,3.1c-0.1,0.1-0.1-29.2-0.1-29.2
		L41.7,10.8z"/>
	<path class="st0" d="M24.4,88.1c-1.4,0-2.8,0.4-3.9,0.8v-5.3H18v16.2h2.5v-8.8c1.2-0.5,2.5-0.8,3.6-0.8c0.5,0,1,0.3,1,0.9v8.7h2.4
		v-8.4C27.4,89.5,26.6,88.1,24.4,88.1z"/>
	<path class="st0" d="M35.1,88.1c-2.1,0-3.7,0.2-4.9,0.7c-0.5,1.6-0.6,3.4-0.6,5.4c0,3.6,0.6,5.8,4.7,5.8c1.9,0,3.5-0.6,4.8-1.2
		L38.7,97c-1.2,0.5-2.8,0.9-4.2,0.9c-1.8,0-2.4-0.6-2.5-3.5h7.5v-1.2C39.5,89.9,38.5,88.1,35.1,88.1z M32,92.7
		c0-1.2,0.2-1.9,0.3-2.4c1-0.2,2.1-0.2,2.9-0.2c1.7,0,2,0.9,2,2.6H32z"/>
	<path class="st0" d="M79.6,88.4v8.8c-1.2,0.5-2.7,0.8-3.7,0.8c-0.5,0-1-0.3-1-0.9v-8.7h-2.4v8.4c0,1.9,0.8,3.2,3.1,3.2
		c1.4,0,3.6-0.2,6.5-1.8v-9.9H79.6z"/>
	<path class="st0" d="M41.6,99.7h2.5v-8.8h0c1-0.4,2.2-0.6,3.2-0.6v-2c-1.4,0.1-3.6,0.4-5.7,1.6V99.7z"/>
	<path class="st0" d="M70.5,88.4h-2.8c-0.7,1.6-1.6,3.2-2.9,4.5h-1.1v-9.3h-2.5v16.2h2.5v-5.2H65c1.5,1.6,2.4,3.4,3.1,5.2h2.9
		c-1.1-2.2-2.3-4.4-3.9-6.4C68.3,91.9,69.5,90.3,70.5,88.4z"/>
	<path class="st0" d="M53.8,88.1c-3.1,0-5.3,1.7-5.3,6c0,4.1,1.7,5.9,5.3,5.9c3.1,0,5.3-1.7,5.3-6C59.1,89.9,57.4,88.1,53.8,88.1z
		 M53.8,97.9c-2,0-2.9-0.7-2.9-3.8c0-2.9,1-4,2.9-4v0c2,0,2.9,0.7,2.9,3.9C56.7,96.9,55.7,97.9,53.8,97.9z"/>
</g>
</svg>
