<?xml version="1.0" encoding="utf-8"?>
<!-- Generator: Adobe Illustrator 22.1.0, SVG Export Plug-In . SVG Version: 6.00 Build 0)  -->
<svg version="1.1" id="Layer_1" xmlns="http://www.w3.org/2000/svg" xmlns:xlink="http://www.w3.org/1999/xlink" x="0px" y="0px"
	 viewBox="0 0 100 100" style="enable-background:new 0 0 100 100;" xml:space="preserve">
<style type="text/css">
	.st0{fill:#FFFFFF;}
</style>
<g>
	<path class="st0" d="M96.9,52.1C96.9,52,96.9,52,96.9,52.1c1.1-0.5,1.9-1.4,1.9-2.6c0-2.3-2.2-2.9-3.7-2.9c-1.3,0-2.3,0-3.6,0
		c-1.4,0-1.9-0.1-2.1-0.1l0,0c-0.1,0.1-0.4,0.7-0.3,0.8c0.4,0.1,0.9,0.1,1.2,0.2c0.4,0.1,0.6,0.3,0.6,0.8c0,0.7,0,2.2,0,4.4
		c0,1.6,0,3.8,0,4.5c-0.1,0.7-0.1,0.9-0.6,1c-0.3,0.1-0.6,0.1-0.9,0.1c-0.1,0.1-0.4,0.8-0.3,0.8c1.4,0,3.8,0.1,4.8,0.1
		c1.2,0,2.4-0.1,3.4-0.6c1.6-0.7,2.7-1.8,2.7-3.5C99.8,53.4,98.5,52.4,96.9,52.1z M92.8,47.9c0-0.1,0.1-0.3,0.2-0.3
		c0.3-0.1,0.6-0.1,0.8,0c1.8,0,3,0.7,3,2.4c0,0.8-0.3,1.5-1,1.8c-0.3,0.1-0.7,0.2-1.5,0.2c-0.6,0-1.2,0-1.5,0
		c-0.1,0-0.1-0.1-0.1-0.1C92.8,50.5,92.8,48.6,92.8,47.9z M95,58.3c-0.5,0-1.2,0-1.6-0.2c-0.3-0.1-0.6-0.6-0.6-1
		c-0.1-0.8,0-2.8,0-4.1c0-0.1,0.1-0.1,0.1-0.1c0.2,0,0.9,0,1,0c2.4,0,3.7,1,3.7,2.8C97.7,57.5,96.4,58.3,95,58.3z"/>
	<path class="st0" d="M85.6,48c-1.1-0.9-2.6-1.4-4.4-1.4c-2.1,0-3,0.1-4.1,0.1c-0.6,0-1.9-0.1-2.3-0.1l0,0c-0.1,0.1-0.4,0.7-0.3,0.8
		c0.5,0.1,0.9,0.1,1.1,0.2c0.5,0.1,0.8,0.3,0.9,0.9c0,0.8,0,3.1,0,4.3c0,1.7,0,3.2,0,4.4c-0.1,0.7-0.1,0.9-0.5,1
		c-0.2,0.1-0.4,0.1-0.8,0.2c-0.1,0-0.4,0.6-0.3,0.8l0,0c1.8,0,3.9,0.1,5.1,0.1c2.3,0,3.9-0.5,5.2-1.5c1.2-0.9,2.5-2.5,2.5-5.2
		C87.6,50.7,86.9,49.1,85.6,48z M83.8,57.2c-0.9,0.8-1.9,1-2.9,1c-0.8,0-1.6-0.1-2-0.5l0,0c-0.3-0.2-0.4-0.6-0.4-0.9
		c0-0.3,0-2.6,0-4.3c0-1.6,0-4.4,0-4.8c0-0.1,0.1-0.3,0.2-0.3c0.2-0.1,0.6-0.1,1-0.1c1.3,0,2.5,0.2,3.4,0.8c1.6,1,2.4,2.6,2.4,4.7
		C85.5,55,84.8,56.4,83.8,57.2z"/>
	<path class="st0" d="M37.2,50.8c-0.9,0-1.9,0.3-2.8,0.8c-1.2,0.8-1.8,1.9-1.8,3.4c0,2.1,1.1,4.4,4.2,4.4c0.9,0,1.9-0.4,2.5-0.8
		c1.2-0.8,1.9-2.1,1.9-3.7C41.2,52.5,39.6,50.8,37.2,50.8z M38.6,58.1c-0.3,0.3-0.7,0.4-1.2,0.4c-1.7,0-2.9-1.7-2.9-4
		c0-1.3,0.4-2.1,1.1-2.6c0.3-0.2,0.6-0.3,1-0.3c1.7,0,2.9,1.6,2.9,3.9C39.4,56.8,39.2,57.7,38.6,58.1z"/>
	<path class="st0" d="M31.4,58.6c-0.5-0.1-0.8-0.1-1-0.3c-0.2-0.1-0.3-0.3-0.3-0.4c0-0.4,0-1,0-1.6c0-0.7,0-1.5,0-2.1
		c0-2.1-1-3.4-2.7-3.4c-0.7,0-1.8,0.5-2.8,1.3l-0.1,0.1c-0.1,0-0.1,0-0.1-0.1c-0.5-0.9-1.2-1.3-2.1-1.3c-0.5,0-1.6,0.3-2.7,1.2h-0.1
		c-0.1,0-0.1-0.1-0.1-0.1c0-0.2,0-0.5,0-0.7V51c0-0.1-0.1-0.3-0.1-0.3c-0.6,0.3-2.2,0.6-2.8,0.7c-0.2,0-0.3,0.2-0.3,0.3
		c0,0.1,0.1,0.2,0.3,0.3c0.5,0.1,0.8,0.3,1.1,0.5c0.2,0.1,0.2,0.3,0.2,0.5l0,0c0,1.4,0,3.5,0,4.6c0,0.5-0.2,0.6-0.5,0.7
		c-0.2,0.1-0.4,0.1-0.8,0.2c0,0-0.1,0.1-0.1,0.3s0,0.4,0.1,0.4l0,0c0.2,0,0.4,0,0.7,0c0.4,0,0.8,0,1.4,0c0.5,0,1,0,1.4,0
		c0.3,0,0.5,0,0.6,0c0.1-0.1,0.1-0.6,0.1-0.7l-0.3-0.1c-0.2,0-0.3-0.1-0.4-0.1c-0.4-0.1-0.5-0.3-0.5-0.6c0-0.7,0-2.3,0-3.6V53
		c0-0.2,0.1-0.3,0.2-0.4c0.6-0.4,1.3-0.7,1.8-0.7c1,0,1.6,0.5,1.8,1.6c0.1,0.6,0.1,3.2,0,4.1c0,0.4-0.1,0.6-0.4,0.6
		c-0.2,0-0.4,0.1-0.6,0.1c-0.1,0-0.2,0-0.3,0c0,0-0.1,0.2-0.1,0.3c0,0.2,0,0.3,0.1,0.4c0.2,0,0.5,0,0.8,0c0.4,0,0.9,0,1.1,0
		c0.9,0,1.6,0,2.2,0c0,0,0.1-0.1,0.1-0.2c0.1-0.2,0.1-0.4,0-0.5c-0.3-0.1-0.4-0.1-0.6-0.1c-0.1,0-0.2,0-0.3-0.1
		C25.1,58,25,57.9,25,57.5c0-0.6,0-1.3,0-2.1v-1.2c0-0.7,0-1.1-0.1-1.5l0,0c0-0.1,0-0.1,0.1-0.2c0.7-0.5,1.4-0.7,1.8-0.7
		c1.2,0,1.7,0.8,1.8,1.6c0.1,0.7,0,3.6,0,4c0,0.5-0.1,0.6-0.5,0.7c-0.2,0.1-0.4,0.1-0.7,0.2c-0.1,0.1,0,0.5,0,0.7
		c0.6,0,1.1-0.1,2.3-0.1c0.5,0,0.9,0,1.4,0c0.2,0,0.3,0,0.5,0C31.3,59.2,31.4,58.7,31.4,58.6L31.4,58.6z"/>
	<path class="st0" d="M62.1,52.5L62.1,52.5c0.4,0,0.7-0.1,0.9-0.3c0.2-0.3,0.3-0.6,0.2-0.8c0-0.2-0.1-0.3-0.1-0.4
		c-0.3,0.3-0.6,0.5-1.3,0.5c-0.5,0-0.8-0.1-1.2-0.2c-0.7-0.2-1.1-0.4-2-0.4h-0.1c-0.8,0-2.1,0.5-2.6,0.9c-0.6,0.4-1,1.3-1,2.2
		c0,1.4,0.6,2.3,1.9,2.8l0.1,0.1V57c-0.2,0.2-0.5,0.4-0.8,0.5c-0.2,0.1-0.4,0.2-0.5,0.3c-0.2,0.1-0.1,0.2-0.1,0.3l0,0
		c0.1,0.3,0.3,0.8,1.2,1.1l0.1,0.1c0,0,0,0.1-0.1,0.1c-1,0.7-1.5,1.1-1.7,1.3c-0.3,0.4-0.4,0.8-0.4,0.9c0,0.5,0.3,1.3,1,1.8
		c0.7,0.5,1.5,0.8,2.6,0.8c0.8,0,1.6-0.2,2.4-0.5c1.6-0.8,2.5-2,2.5-3.4c0-0.9-0.5-1.6-1.4-1.9c-0.6-0.2-1.9-0.3-2.9-0.4
		c-0.2,0-0.3,0-0.5,0c-0.8-0.1-0.9-0.4-0.9-0.6c0-0.3,0.4-0.5,0.5-0.5l0,0c0,0,0.1,0,0.2,0c0.2,0,0.2,0,0.3,0
		c0.8-0.1,1.5-0.4,2.1-0.8c0.6-0.5,1.2-1.1,1.2-2.6c0-0.1-0.1-0.6-0.1-0.8l0,0c0-0.1,0-0.1,0-0.1h0.1C61.6,52.4,61.8,52.5,62.1,52.5
		z M58,59.6L58,59.6c1.1,0,2,0.1,2.5,0.3c0.7,0.3,1,0.7,1,1.4c0,1-0.8,2-2.7,2c-0.9,0-1.6-0.2-2.2-0.7c-0.4-0.4-0.6-0.8-0.6-1.3
		c0-0.6,0.3-1,1.1-1.5C57.4,59.7,57.6,59.6,58,59.6z M59.5,55.6c-0.2,0.3-0.7,0.4-0.9,0.4c-1.5,0-2-1.4-2-2.5c0-1.2,0.6-1.9,1.6-1.9
		l0,0c1.2,0,2,0.9,2,2.4C60.1,54.7,59.8,55.3,59.5,55.6z"/>
	<path class="st0" d="M51.9,58.2c-0.1,0-0.1-0.2-0.1-0.3c0-0.6,0-2.4,0-3.6c0-1-0.2-1.8-0.6-2.4c-0.5-0.7-1.2-1.1-2.1-1.1
		c-0.8,0-1.9,0.5-2.7,1.3c0,0-0.2,0.1-0.1-0.1c0-0.2,0-0.6,0.1-0.9c0-0.3-0.1-0.4-0.1-0.4c-0.6,0.3-2.2,0.7-2.8,0.7
		c-0.4,0.1-0.5,0.5-0.1,0.6l0,0c0.5,0.1,0.8,0.3,1.1,0.5c0.2,0.1,0.2,0.3,0.2,0.5c0,1.4,0,3.4,0,4.6c0,0.5-0.1,0.6-0.5,0.7l0,0
		c-0.3,0.1-0.5,0.1-0.8,0.1c-0.1,0.1-0.1,0.7,0,0.8c0.2,0,1.2-0.1,2.1-0.1c1.2,0,1.8,0.1,2.1,0.1c0.1-0.1,0.2-0.7,0.1-0.8
		c-0.3,0-0.6-0.1-0.8-0.1c-0.3-0.1-0.4-0.2-0.4-0.6c0-1,0-3,0-4.3c0-0.4,0.1-0.6,0.2-0.7c0.4-0.4,1.1-0.6,1.7-0.6
		c0.6,0,1,0.2,1.2,0.4c0.4,0.3,0.5,0.8,0.6,1.1c0.1,0.8,0.1,2.3,0.1,3.6c0,0.7-0.1,0.9-0.3,1c-0.1,0.1-0.5,0.1-0.8,0.2
		c-0.1,0.1-0.1,0.7,0,0.8c0.5,0,1.1-0.1,2-0.1c1.1,0,1.8,0.1,2.1,0.1c0.1-0.1,0.1-0.6,0.1-0.8C52.6,58.4,52.3,58.3,51.9,58.2z"/>
	<path class="st0" d="M69.1,50.8c-0.9,0-1.9,0.3-2.8,0.8c-1.2,0.8-1.8,1.9-1.8,3.4c0,2.1,1.1,4.4,4.2,4.4c0.8,0,1.9-0.4,2.5-0.8
		c1.2-0.8,1.9-2.1,1.9-3.7C73.1,52.5,71.4,50.8,69.1,50.8z M70.5,58.1c-0.3,0.3-0.7,0.4-1.2,0.4c-1.7,0-2.9-1.7-2.9-4
		c0-1.3,0.4-2.1,1.1-2.6c0.3-0.2,0.6-0.3,1-0.3l0,0c1.7,0,2.9,1.6,2.9,3.9C71.3,56.8,71,57.7,70.5,58.1z"/>
	<path class="st0" d="M6.9,37.4c-0.4-0.6-0.8-1.6-0.8-1.6l0,0c0-0.1,0-0.1,0-0.1c0,0.6-0.1,0.8-0.6,1.4C4.7,37.8,0.4,41.4,0,48.7
		c-0.3,6.8,4.9,10.9,5.6,11.4c0.5,1.2,0.5,3.2,0.5,3.2l0.7,0.3c0,0-0.1-2,0.1-2.9c0.1-0.3,0.2-0.6,0.4-0.8c0.1-0.1,0.5-0.3,0.9-0.7
		l0,0l0,0c1.8-1.6,5.1-5.7,4-12.3C10.8,40.3,7.3,38.2,6.9,37.4z"/>
</g>
</svg>
